<svg version="1.1" xmlns="http://www.w3.org/2000/svg" xmlns:xlink="http://www.w3.org/1999/xlink" width="359.8569" height="359.8569" viewBox="0,0,359.8569,359.8569"><g transform="translate(-60.07155,-0.07155)"><g data-paper-data="{&quot;isPaintingLayer&quot;:true}" stroke-miterlimit="10" stroke-dasharray="" stroke-dashoffset="0" style="mix-blend-mode: normal"><path d="M60.07155,359.92845v-359.8569h359.8569v359.8569z" fill="none" fill-rule="nonzero" stroke="none" stroke-width="NaN" stroke-linecap="butt" stroke-linejoin="miter"/><path d="M265.41225,63.36282c1.09694,-0.73128 2.92517,-0.36566 3.29083,1.0969l9.50674,39.12391c0,0 23.40122,17.1853 30.34845,29.25155c11.70063,20.11043 12.06625,36.56437 12.06625,36.56437c0,0 25.96072,7.67856 30.34845,28.52027c4.38773,20.84171 -11.70063,60.33124 -80.44171,73.86005c-68.74108,13.52881 -123.95331,-5.11901 -149.91404,-46.80243c-25.96072,-41.68342 14.99138,-91.41102 12.79753,-88.48585l-7.67852,-65.45025c-0.36566,-1.46256 1.4626,-2.55951 2.92517,-1.82822l44.24292,28.88589c0,0 16.45398,-6.21595 33.63924,-6.94724c10.23802,-0.73128 19.01353,0 27.42333,1.46256z" fill="#ffab19" fill-rule="evenodd" stroke="#001026" stroke-width="7.5" stroke-linecap="butt" stroke-linejoin="miter"/><path d="M319.52758,170.86215c0,0 25.22944,6.58158 29.61717,27.42328c4.38773,20.84171 -13.16319,58.50306 -81.17299,71.66625c-88.48585,18.2822 -130.53489,-34.37056 -106.03673,-73.12881c24.49816,-39.12391 66.54716,-5.85033 97.26127,-8.04418c26.32638,-1.82822 29.25155,-24.86378 60.33128,-17.91654z" fill="#ffffff" fill-rule="evenodd" stroke="none" stroke-width="1" stroke-linecap="butt" stroke-linejoin="miter"/><path d="M204.34973,209.98606c0,-1.46256 1.46256,-2.55955 2.92513,-2.19389c6.94724,2.55951 26.692,8.40984 48.63066,9.8724c19.74477,1.09694 31.44539,0 36.93007,-1.09694c1.82822,-0.36566 3.29079,1.46256 2.55951,3.29079c-3.29079,9.8724 -17.18526,37.29569 -55.57789,35.10184c-33.27362,-3.65645 -36.56441,-27.05766 -35.46746,-44.97421z" fill="#ffffff" fill-rule="evenodd" stroke="#001026" stroke-width="7.5" stroke-linecap="round" stroke-linejoin="round"/><path d="M386.80606,174.88422c-17.18526,13.89447 -43.5116,14.26013 -43.5116,14.26013" fill="none" fill-rule="evenodd" stroke="#001026" stroke-width="7.5" stroke-linecap="round" stroke-linejoin="round"/><path d="M382.05271,215.83636c-23.03555,1.82822 -37.29569,-5.11901 -37.29569,-5.11901" fill="none" fill-rule="evenodd" stroke="#001026" stroke-width="7.5" stroke-linecap="round" stroke-linejoin="round"/><path d="M257.73373,179.27195c7.67852,0 15.7227,0.73128 16.08836,3.29079c0.36566,5.11901 -5.11905,15.35704 -10.96935,15.7227c-6.58158,0.73128 -21.93861,-8.4098 -21.93861,-14.26009c-0.36566,-4.38773 9.5067,-4.75339 16.8196,-4.75339z" fill="#001026" fill-rule="evenodd" stroke="#001026" stroke-width="1.2" stroke-linecap="round" stroke-linejoin="round"/><path d="M93.19394,173.78728c0,0 31.44539,10.23802 44.24292,21.57299" fill="none" fill-rule="evenodd" stroke="#001026" stroke-width="7.5" stroke-linecap="round" stroke-linejoin="round"/><path d="M138.53377,208.15784c-15.7227,6.21595 -42.78032,2.19385 -42.78032,2.19385" fill="none" fill-rule="evenodd" stroke="#001026" stroke-width="7.5" stroke-linecap="round" stroke-linejoin="round"/><g fill-rule="evenodd" stroke-width="7.5"><path d="M300.87971,136.49159c10.60369,16.45398 10.96935,35.10184 0.73132,41.68342c-10.23802,6.58158 -27.0577,-1.09694 -38.02701,-17.55092c-10.60369,-16.45398 -10.96931,-35.1018 -0.73128,-41.68338c10.23802,-6.94724 27.42328,1.0969 38.02697,17.55088z" fill="#ffffff" stroke="#001026" stroke-linecap="round" stroke-linejoin="round"/><path d="M299.41715,157.3333c0,4.02207 -2.92513,7.3129 -6.58158,7.3129c-3.65645,0 -6.58162,-3.29083 -6.58162,-7.3129c0,-4.02207 2.92517,-7.31286 6.58162,-7.31286c3.65645,0 6.58158,3.29079 6.58158,7.31286" fill="#001026" stroke="none" stroke-linecap="butt" stroke-linejoin="miter"/></g><g fill-rule="evenodd" stroke-width="7.5"><path d="M210.20002,146.72965c10.96931,16.08832 10.23806,35.83308 0.36566,42.78032c-12.06625,6.94724 -28.15461,1.82822 -39.12391,-14.26009c-11.33497,-16.08832 -12.06629,-36.93007 -0.73132,-44.97425c11.33497,-8.4098 28.52027,0.3657 39.48957,16.45402z" fill="#ffffff" stroke="#001026" stroke-linecap="round" stroke-linejoin="round"/><path d="M208.00613,167.93698c0,4.02207 -2.92513,7.3129 -6.58158,7.3129c-3.65645,0 -6.58158,-3.29083 -6.58158,-7.3129c0,-4.02207 2.92513,-7.3129 6.58158,-7.3129c3.65645,0.36566 6.58158,3.29083 6.58158,7.3129" fill="#001026" stroke="none" stroke-linecap="butt" stroke-linejoin="miter"/></g><path d="M310.8342,237.69058c-11.87651,11.87651 -20.62769,17.97104 -27.50355,20.31507c-2.0315,-6.25078 -5.46944,-12.0328 -10.31381,-16.87716c-5.00065,-4.84436 -10.78264,-8.28227 -17.03341,-10.47006c2.50033,-6.87586 8.59485,-15.62696 20.31511,-27.34722c28.12859,-28.28488 78.13488,-62.82054 87.66735,-53.28807c9.53247,9.53247 -25.0031,59.53884 -53.1317,87.66743zM258.98042,289.72174c-4.65046,4.49324 -10.65115,6.81236 -16.65172,7.10223v0.14494h-1.50017c-40.20405,1.44943 -57.75582,-44.06284 -43.95442,-39.27972c18.15181,6.23256 25.51754,-2.75393 25.80261,-3.04381c10.05103,-9.56629 26.25266,-9.56629 36.30369,0c10.05103,9.71123 10.05103,25.51007 0,35.07635z" fill="#575e75" fill-rule="evenodd" stroke="#575e75" stroke-width="0.5" stroke-linecap="round" stroke-linejoin="round"/></g></g></svg>